<svg xmlns="http://www.w3.org/2000/svg" width="30" height="30" viewBox="0 0 30 30">
  <g id="그룹_29" data-name="그룹 29" transform="translate(0 0)">
    <path id="패스_1545" data-name="패스 1545" d="M11.539,0V2.308H6.924V4.615H4.616V6.924H2.307v4.615H0v6.923H2.307v4.616H4.616v2.307H6.924v2.309h4.616V30h6.923V27.693h4.615V25.385h2.309V23.078h2.308V18.462H30V11.538H27.693V6.924H25.386V4.615H23.077V2.308H18.462V0Z" fill="#d07409"/>
    <path id="패스_1546" data-name="패스 1546" d="M16.867,3H14.556V5.311h2.311ZM21.49,21.49H23.8V19.179H21.49ZM19.179,23.8H21.49V21.49H19.179ZM12.245,5.311H9.934V7.622h2.311ZM7.622,9.934H9.934V7.622H7.622ZM5.311,12.245H7.622V9.934H5.311ZM3,16.867H5.311V14.556H3Zm18.49,2.311V12.245H19.179v2.311H16.867v2.311H14.556v2.311H12.245V21.49h6.934V19.179Z" transform="translate(-0.689 -0.689)" fill="#ffff73"/>
    <path id="패스_1547" data-name="패스 1547" d="M12.934,29.112h6.934V26.8H12.934ZM24.49,6H22.179V8.311H24.49ZM22.179,8.311H19.867v2.311h2.311Zm4.622,0H24.49v2.311H26.8Zm-4.622,4.622H24.49V10.622H22.179ZM26.8,19.867h2.311V12.934H26.8ZM24.49,24.49H26.8V22.179H24.49ZM22.179,26.8H24.49V24.49H22.179ZM8.311,22.179h2.311V19.867H8.311Zm4.622,0H10.622V24.49h2.311ZM6,24.49H8.311V22.179H6ZM8.311,26.8h2.311V24.49H8.311Zm4.622-16.179v2.311H10.622v6.934h2.311V17.556h2.311V15.245h2.311V12.934h2.311V10.622Z" transform="translate(-1.423 -1.423)" fill="#fac914"/>
    <path id="패스_1548" data-name="패스 1548" d="M15,26.556h6.934V24.245H15Zm9.245-4.622h2.311V15H24.245Zm-2.311,2.311h2.311V21.934H21.934Z" transform="translate(-3.472 -3.472)" fill="#f8a80a"/>
    <path id="패스_1549" data-name="패스 1549" d="M21.49,5.311H19.179V3H16.867V5.311H12.245V7.622H21.49ZM23.8,7.622H21.49V9.934H23.8Zm0,13.867h2.311V9.934H23.8ZM21.49,23.8H23.8V21.49H21.49ZM9.934,26.112H21.49V23.8H9.934Zm2.311-18.49H9.934V9.934h2.311ZM9.934,9.934H7.622v2.311H9.934ZM5.311,12.245v4.622H3v2.311H5.311V21.49H7.622V12.245ZM7.622,23.8H9.934V21.49H7.622Zm6.934-6.934h2.311V14.556H14.556Zm2.311-2.311h2.311V12.245H16.867Zm-4.622,4.622h2.311V16.867H12.245Z" transform="translate(-0.689 -0.689)" fill="#fde632"/>
    <path id="패스_1550" data-name="패스 1550" d="M12.245,5.311h2.311V3H12.245ZM7.622,7.622H9.934V5.311H7.622ZM5.311,9.934H7.622V7.622H5.311ZM3,14.556H5.311V12.245H3Z" transform="translate(-0.689 -0.689)" fill="#fffed2"/>
  </g>
</svg>
